<svg xmlns="http://www.w3.org/2000/svg" version="1.1" xmlns:xlink="http://www.w3.org/1999/xlink" xmlns:svgjs="http://svgjs.dev/svgjs" width="1500" height="1500" viewBox="0 0 1500 1500"><rect width="1500" height="1500" fill="#ffffff"></rect><g transform="matrix(0.6666666666666666,0,0,0.6666666666666666,249.39393939393938,435.99032258064517)"><svg viewBox="0 0 396 248" data-background-color="#e46054" preserveAspectRatio="xMidYMid meet" height="939" width="1500" xmlns="http://www.w3.org/2000/svg" xmlns:xlink="http://www.w3.org/1999/xlink"><g id="tight-bounds" transform="matrix(1,0,0,1,0.2400000000000091,0.4000000000000057)"><svg viewBox="0 0 395.52 247.2" height="247.2" width="395.52"><g><svg></svg></g><g><svg viewBox="0 0 395.52 247.2" height="247.2" width="395.52"><g transform="matrix(1,0,0,1,75.54432,101.9928079558011)"><svg viewBox="0 0 244.43135999999998 43.214384088397786" height="43.214384088397786" width="244.43135999999998"><g><svg viewBox="0 0 244.43135999999998 43.214384088397786" height="43.214384088397786" width="244.43135999999998"><g><svg viewBox="0 0 244.43135999999998 43.214384088397786" height="43.214384088397786" width="244.43135999999998"><g><svg viewBox="0 0 244.43135999999998 43.214384088397786" height="43.214384088397786" width="244.43135999999998"><g id="textblocktransform"><svg viewBox="0 0 244.43135999999998 43.214384088397786" height="43.214384088397786" width="244.43135999999998" id="textblock"><g><svg viewBox="0 0 244.43135999999998 43.214384088397786" height="43.214384088397786" width="244.43135999999998"><g transform="matrix(1,0,0,1,0,0)"><svg width="244.43135999999998" viewBox="4.13 -37.5 269.53000000000003 47.66" height="43.214384088397786" data-palette-color="#ffffff"><path d="M4.13-35.55L10.18-35.55 21.8-6.54 33.42-35.55 39.5-35.55 39.5 0 34.81 0 34.81-13.84 35.25-28.78 23.58 0 20 0 8.35-28.71 8.81-13.84 8.81 0 4.13 0 4.13-35.55ZM68.11 0L63.38 0Q62.99-0.78 62.74-2.78L62.74-2.78Q59.59 0.49 55.22 0.49L55.22 0.49Q51.32 0.49 48.81-1.72 46.31-3.93 46.31-7.32L46.31-7.32Q46.31-11.45 49.45-13.73 52.59-16.02 58.27-16.02L58.27-16.02 62.67-16.02 62.67-18.09Q62.67-20.46 61.25-21.86 59.84-23.27 57.08-23.27L57.08-23.27Q54.66-23.27 53.02-22.05 51.39-20.83 51.39-19.09L51.39-19.09 46.85-19.09Q46.85-21.07 48.25-22.91 49.66-24.76 52.06-25.83 54.47-26.9 57.35-26.9L57.35-26.9Q61.91-26.9 64.5-24.62 67.09-22.34 67.19-18.33L67.19-18.33 67.19-6.18Q67.19-2.54 68.11-0.39L68.11-0.39 68.11 0ZM55.88-3.44L55.88-3.44Q58.01-3.44 59.91-4.54 61.81-5.64 62.67-7.4L62.67-7.4 62.67-12.82 59.13-12.82Q50.83-12.82 50.83-7.96L50.83-7.96Q50.83-5.83 52.24-4.64 53.66-3.44 55.88-3.44ZM87.03-26.56L87.03-22.36Q86.01-22.53 84.81-22.53L84.81-22.53Q80.37-22.53 78.78-18.75L78.78-18.75 78.78 0 74.26 0 74.26-26.42 78.66-26.42 78.73-23.36Q80.95-26.9 85.03-26.9L85.03-26.9Q86.35-26.9 87.03-26.56L87.03-26.56ZM107.76 0L98.55-12.23 95.72-9.28 95.72 0 91.2 0 91.2-37.5 95.72-37.5 95.72-14.82 98.14-17.72 106.36-26.42 111.86-26.42 101.58-15.38 113.05 0 107.76 0ZM126.99 0.49L126.99 0.49Q121.62 0.49 118.25-3.04 114.88-6.57 114.88-12.48L114.88-12.48 114.88-13.31Q114.88-17.24 116.38-20.32 117.89-23.41 120.58-25.16 123.28-26.9 126.43-26.9L126.43-26.9Q131.58-26.9 134.44-23.51 137.29-20.12 137.29-13.79L137.29-13.79 137.29-11.91 119.4-11.91Q119.5-8.01 121.68-5.6 123.87-3.2 127.24-3.2L127.24-3.2Q129.63-3.2 131.29-4.17 132.95-5.15 134.19-6.76L134.19-6.76 136.95-4.61Q133.63 0.49 126.99 0.49ZM126.43-23.19L126.43-23.19Q123.7-23.19 121.84-21.2 119.99-19.21 119.55-15.63L119.55-15.63 132.78-15.63 132.78-15.97Q132.58-19.41 130.92-21.3 129.26-23.19 126.43-23.19ZM144.13-32.81L148.64-32.81 148.64-26.42 153.58-26.42 153.58-22.92 148.64-22.92 148.64-6.54Q148.64-4.96 149.3-4.16 149.96-3.37 151.55-3.37L151.55-3.37Q152.33-3.37 153.7-3.66L153.7-3.66 153.7 0Q151.92 0.49 150.23 0.49L150.23 0.49Q147.2 0.49 145.67-1.34 144.13-3.17 144.13-6.54L144.13-6.54 144.13-22.92 139.32-22.92 139.32-26.42 144.13-26.42 144.13-32.81ZM181.16-13.33L181.16-12.92Q181.16-6.88 178.4-3.2 175.64 0.49 170.93 0.49L170.93 0.49Q166.12 0.49 163.36-2.56L163.36-2.56 163.36 10.16 158.85 10.16 158.85-26.42 162.97-26.42 163.19-23.49Q165.95-26.9 170.86-26.9L170.86-26.9Q175.62-26.9 178.39-23.32 181.16-19.73 181.16-13.33L181.16-13.33ZM176.65-13.43L176.65-13.43Q176.65-17.9 174.74-20.48 172.84-23.07 169.52-23.07L169.52-23.07Q165.41-23.07 163.36-19.43L163.36-19.43 163.36-6.81Q165.39-3.2 169.57-3.2L169.57-3.2Q172.81-3.2 174.73-5.77 176.65-8.35 176.65-13.43ZM191.8-37.5L191.8 0 187.29 0 187.29-37.5 191.8-37.5ZM220.07 0L215.34 0Q214.95-0.78 214.7-2.78L214.7-2.78Q211.55 0.49 207.18 0.49L207.18 0.49Q203.28 0.49 200.77-1.72 198.27-3.93 198.27-7.32L198.27-7.32Q198.27-11.45 201.41-13.73 204.55-16.02 210.23-16.02L210.23-16.02 214.63-16.02 214.63-18.09Q214.63-20.46 213.21-21.86 211.8-23.27 209.04-23.27L209.04-23.27Q206.62-23.27 204.98-22.05 203.35-20.83 203.35-19.09L203.35-19.09 198.81-19.09Q198.81-21.07 200.21-22.91 201.62-24.76 204.02-25.83 206.43-26.9 209.31-26.9L209.31-26.9Q213.87-26.9 216.46-24.62 219.05-22.34 219.15-18.33L219.15-18.33 219.15-6.18Q219.15-2.54 220.07-0.39L220.07-0.39 220.07 0ZM207.84-3.44L207.84-3.44Q209.97-3.44 211.87-4.54 213.77-5.64 214.63-7.4L214.63-7.4 214.63-12.82 211.09-12.82Q202.79-12.82 202.79-7.96L202.79-7.96Q202.79-5.83 204.2-4.64 205.62-3.44 207.84-3.44ZM236.82-3.2L236.82-3.2Q239.24-3.2 241.04-4.66 242.85-6.13 243.04-8.33L243.04-8.33 247.32-8.33Q247.19-6.05 245.75-4 244.31-1.95 241.91-0.73 239.5 0.49 236.82 0.49L236.82 0.49Q231.42 0.49 228.24-3.11 225.05-6.71 225.05-12.96L225.05-12.96 225.05-13.72Q225.05-17.58 226.47-20.58 227.88-23.58 230.53-25.24 233.18-26.9 236.79-26.9L236.79-26.9Q241.24-26.9 244.18-24.24 247.12-21.58 247.32-17.33L247.32-17.33 243.04-17.33Q242.85-19.9 241.1-21.55 239.36-23.19 236.79-23.19L236.79-23.19Q233.35-23.19 231.46-20.72 229.57-18.24 229.57-13.55L229.57-13.55 229.57-12.7Q229.57-8.13 231.45-5.66 233.33-3.2 236.82-3.2ZM263.35 0.49L263.35 0.49Q257.98 0.49 254.61-3.04 251.24-6.57 251.24-12.48L251.24-12.48 251.24-13.31Q251.24-17.24 252.75-20.32 254.25-23.41 256.95-25.16 259.64-26.9 262.79-26.9L262.79-26.9Q267.94-26.9 270.8-23.51 273.66-20.12 273.66-13.79L273.66-13.79 273.66-11.91 255.76-11.91Q255.86-8.01 258.04-5.6 260.23-3.2 263.6-3.2L263.6-3.2Q265.99-3.2 267.65-4.17 269.31-5.15 270.56-6.76L270.56-6.76 273.31-4.61Q269.99 0.49 263.35 0.49ZM262.79-23.19L262.79-23.19Q260.06-23.19 258.2-21.2 256.35-19.21 255.91-15.63L255.91-15.63 269.14-15.63 269.14-15.97Q268.94-19.41 267.28-21.3 265.62-23.19 262.79-23.19Z" opacity="1" transform="matrix(1,0,0,1,0,0)" fill="#000000" class="wordmark-text-0" data-fill-palette-color="primary" id="text-0"></path></svg></g></svg></g></svg></g></svg></g></svg></g></svg></g></svg></g><path d="M186.034 95.993L186.034 34.243 7.32 34.243 7.32 212.957 186.034 212.957 186.034 151.207 182.137 151.207 182.137 209.06 11.217 209.06 11.217 38.14 182.137 38.14 182.137 95.993Z" fill="#000000" stroke="transparent" data-fill-palette-color="tertiary"></path></svg></g><defs></defs></svg><rect width="395.52" height="247.2" fill="none" stroke="none" visibility="hidden"></rect></g></svg></g></svg>