<?xml version="1.0" standalone="no"?>
<!DOCTYPE svg PUBLIC "-//W3C//DTD SVG 20010904//EN"
 "http://www.w3.org/TR/2001/REC-SVG-20010904/DTD/svg10.dtd">
<svg version="1.0" xmlns="http://www.w3.org/2000/svg"
 width="512.000000pt" height="512.000000pt" viewBox="0 0 512.000000 512.000000"
 preserveAspectRatio="xMidYMid meet">
<metadata>
Created by potrace 1.16, written by Peter Selinger 2001-2019
</metadata>
<g transform="translate(0.000000,512.000000) scale(0.100000,-0.100000)"
fill="#000000" stroke="none">
<path d="M1335 4177 c-19 -19 -37 -46 -40 -60 -8 -32 129 -1145 143 -1159 15
-15 52 1 52 21 0 10 -29 250 -65 534 -36 283 -66 535 -67 558 -1 33 4 46 22
61 22 18 53 18 755 16 841 -3 775 5 775 -95 l0 -53 -738 0 c-723 0 -739 0
-757 -20 -21 -24 -22 -14 45 -490 40 -279 52 -347 66 -357 14 -10 112 -13 435
-13 438 0 449 1 433 44 -6 14 -47 16 -414 16 l-408 0 -6 28 c-6 25 -106 706
-106 717 0 3 326 5 725 5 l725 0 0 -309 c0 -169 -3 -336 -6 -370 l-7 -61 -76
0 c-42 0 -119 -3 -173 -6 -88 -6 -97 -9 -107 -30 -5 -13 -6 -26 -2 -29 10 -6
435 8 930 31 238 10 347 12 354 5 11 -11 7 -39 -69 -526 -86 -553 -134 -877
-134 -902 0 -15 10 -37 22 -50 l23 -24 -43 -39 c-23 -22 -42 -43 -42 -47 0 -4
-7 -55 -15 -112 -15 -113 -27 -139 -86 -179 -30 -21 -41 -23 -100 -17 -80 8
-134 -5 -184 -45 -29 -23 -48 -30 -82 -30 -45 0 -45 0 -37 28 5 15 9 54 8 87
-1 93 -47 166 -134 211 -39 20 -153 26 -182 9 -13 -8 1 -10 50 -7 55 3 75 -1
111 -20 69 -35 104 -86 109 -157 2 -32 -1 -67 -7 -77 -8 -16 -10 -16 -11 -3 0
29 -59 98 -100 119 -98 50 -230 44 -310 -13 l-45 -32 -197 -5 c-108 -3 -199
-8 -202 -11 -9 -9 157 -19 306 -19 70 0 128 -1 128 -2 0 -2 -6 -23 -14 -48
l-13 -45 -342 -3 c-338 -2 -343 -2 -373 20 -17 11 -47 27 -67 35 l-36 14 50
-6 c35 -3 57 -1 70 8 40 30 7 37 -160 37 -90 0 -166 4 -169 9 -6 10 -31 240
-72 661 -14 151 -30 285 -35 298 -8 20 -12 21 -30 11 -21 -11 -21 -16 -15
-103 3 -50 24 -273 47 -496 29 -292 44 -409 55 -420 10 -10 34 -13 86 -12 l73
2 -30 -18 c-16 -10 -36 -26 -44 -35 -9 -12 -29 -17 -61 -17 -58 0 -77 7 -90
31 -12 22 -113 1106 -105 1120 4 5 64 9 134 9 l127 0 59 -80 c57 -77 82 -99
71 -62 -2 9 -7 44 -11 77 -3 33 -22 172 -41 308 -20 137 -33 255 -30 262 4 11
87 13 473 8 257 -3 490 -3 516 1 40 6 59 17 108 62 58 53 60 54 121 54 72 0
541 16 727 25 l124 6 -6 -48 c-14 -109 -148 -1021 -176 -1193 -16 -102 -35
-222 -41 -268 -8 -52 -20 -91 -32 -107 -18 -23 -26 -25 -108 -25 -91 0 -120
-11 -120 -46 0 -23 20 -25 134 -16 102 9 110 11 139 40 30 30 32 38 69 269 20
131 76 501 123 823 69 470 84 589 75 609 l-11 24 -197 -6 c-108 -4 -318 -10
-467 -13 -148 -3 -288 -10 -310 -16 -26 -7 -55 -26 -87 -59 -36 -38 -55 -49
-80 -50 -18 -1 -249 -1 -514 1 -498 2 -516 1 -529 -38 -4 -15 26 -270 52 -434
l6 -38 -157 0 c-166 0 -191 -5 -206 -45 -8 -21 18 -348 81 -1028 16 -171 46
-216 142 -217 l39 0 -7 -49 c-10 -73 9 -128 64 -182 79 -80 174 -89 268 -26
68 47 96 103 91 189 l-4 68 327 0 328 0 6 -22 c13 -43 59 -99 99 -123 92 -52
182 -40 257 35 27 27 50 60 54 78 6 31 8 32 64 32 l57 0 -4 -59 c-6 -77 11
-125 63 -177 33 -32 55 -45 97 -54 195 -44 338 150 240 324 -23 39 -28 56 -18
56 18 0 94 83 106 116 6 14 17 74 25 132 8 59 26 163 39 232 14 69 39 220 56
335 17 116 62 410 101 653 38 244 69 457 69 473 0 16 -9 38 -22 51 -21 21 -24
21 -271 14 -200 -5 -248 -4 -244 6 3 7 44 112 92 232 99 253 108 271 144 309
42 46 72 56 225 77 156 20 189 32 230 80 53 63 25 172 -54 213 -30 16 -50 18
-145 12 -134 -7 -216 -25 -295 -65 -129 -65 -152 -100 -309 -479 -56 -133
-106 -252 -112 -262 -9 -17 -19 -19 -85 -17 l-76 3 4 305 c5 487 5 473 -15
503 -10 16 -32 37 -50 47 -31 19 -56 20 -790 20 l-759 0 -33 -33z m2535 -103
c-217 -29 -316 -78 -394 -194 -22 -34 -20 -49 10 -62 20 -10 25 -17 21 -37 -3
-15 -53 -148 -112 -298 l-107 -271 -72 -4 c-39 -2 -72 -3 -74 -2 -1 1 27 68
64 150 36 82 100 230 141 329 87 211 109 250 160 296 82 75 195 108 363 107
l105 0 -105 -14z m-997 -2725 c88 -46 120 -144 76 -232 -33 -65 -39 -70 -59
-52 -16 15 -17 19 -3 46 43 86 -78 177 -136 103 -23 -29 -27 -74 -11 -105 14
-25 67 -52 91 -46 14 4 19 0 19 -14 0 -15 -7 -19 -38 -19 -60 0 -102 55 -102
132 0 53 19 83 64 98 44 14 101 -7 118 -45 13 -29 33 -28 33 1 2 79 -127 125
-194 68 -36 -30 -77 -148 -67 -189 10 -39 -3 -29 -24 18 -56 123 25 247 163
247 27 0 58 -5 70 -11z m-1089 -153 c47 -19 87 -76 93 -131 4 -35 0 -53 -20
-88 -80 -135 -277 -84 -279 72 0 114 104 190 206 147z m1622 -2 c20 -10 45
-34 59 -59 81 -137 -64 -290 -205 -217 -50 26 -84 97 -76 157 16 105 127 164
222 119z m-583 -51 c21 -6 17 -27 -5 -31 -17 -3 -48 23 -48 40 0 6 7 7 18 3 9
-4 25 -10 35 -12z"/>
<path d="M1659 1132 c-24 -21 -32 -38 -36 -75 -5 -43 -3 -49 30 -82 29 -29 42
-35 77 -35 107 0 144 157 48 206 -43 22 -84 17 -119 -14z m105 -64 c16 -26 -4
-53 -40 -53 -23 0 -30 5 -32 23 -2 13 -1 30 2 38 8 20 56 14 70 -8z"/>
<path d="M3279 1145 c-59 -32 -64 -128 -8 -179 27 -24 38 -27 73 -23 57 8 96
52 96 108 0 33 -6 47 -34 75 -38 38 -81 44 -127 19z m72 -55 c12 -7 19 -21 19
-40 0 -23 -5 -31 -25 -36 -15 -4 -32 -1 -40 6 -20 17 -19 57 3 69 21 13 20 13
43 1z"/>
<path d="M1772 3588 c-18 -18 -14 -36 8 -48 12 -7 155 -9 421 -8 368 3 403 4
413 20 7 11 7 21 1 26 -16 15 -829 24 -843 10z"/>
<path d="M1763 3404 c-16 -41 11 -44 433 -44 343 0 403 2 414 15 7 8 10 22 6
30 -5 13 -60 15 -426 15 -381 0 -421 -2 -427 -16z"/>
<path d="M3004 2595 c-4 -8 -4 -22 0 -30 5 -13 32 -15 183 -13 l178 3 0 25 0
25 -178 3 c-151 2 -178 0 -183 -13z"/>
<path d="M2018 2490 c-23 -18 -26 -28 -30 -115 -3 -53 -7 -98 -10 -100 -2 -3
-19 1 -36 7 -24 9 -37 10 -50 2 -15 -10 -17 -35 -17 -260 l0 -249 25 0 25 0 3
234 2 233 45 -41 c25 -23 50 -39 55 -36 6 3 10 47 10 96 0 141 -32 129 338
129 357 0 362 1 362 65 0 24 -6 38 -19 45 -13 6 -141 10 -349 10 -312 0 -331
-1 -354 -20z"/>
<path d="M3005 2409 c-4 -11 -3 -25 2 -30 5 -5 84 -8 179 -7 l169 3 0 25 0 25
-172 3 c-167 2 -172 2 -178 -19z"/>
<path d="M3137 2032 c-84 -2 -109 -6 -114 -17 -13 -35 16 -45 121 -45 104 0
126 7 126 41 0 23 -9 24 -133 21z"/>
<path d="M1987 2016 c-3 -8 0 -21 6 -30 11 -15 57 -16 452 -14 l440 3 0 25 0
25 -446 3 c-377 2 -448 0 -452 -12z"/>
<path d="M1986 1834 c-17 -44 -19 -44 643 -42 l626 3 3 28 3 27 -634 0 c-577
0 -635 -1 -641 -16z"/>
<path d="M2213 1403 c-60 -3 -83 -7 -83 -17 0 -26 378 -38 399 -13 29 36 -28
41 -316 30z"/>
<path d="M1565 1360 c4 -6 53 -10 116 -10 66 0 109 4 109 10 0 6 -45 10 -116
10 -74 0 -113 -4 -109 -10z"/>
</g>
</svg>